<?xml version="1.0" encoding="UTF-8" standalone="no"?>
<svg
   xmlns:dc="http://purl.org/dc/elements/1.1/"
   xmlns:cc="http://creativecommons.org/ns#"
   xmlns:rdf="http://www.w3.org/1999/02/22-rdf-syntax-ns#"
   xmlns:svg="http://www.w3.org/2000/svg"
   xmlns="http://www.w3.org/2000/svg"
   xmlns:sodipodi="http://sodipodi.sourceforge.net/DTD/sodipodi-0.dtd"
   xmlns:inkscape="http://www.inkscape.org/namespaces/inkscape"
   version="1.1"
   id="svg2"
   xml:space="preserve"
   width="94.666664"
   height="73.333336"
   viewBox="0 0 94.666664 73.333336"
   sodipodi:docname="discord-icon-new-2021-seeklogo.com-4.eps"><metadata
     id="metadata8"><rdf:RDF><cc:Work
         rdf:about=""><dc:format>image/svg+xml</dc:format><dc:type
           rdf:resource="http://purl.org/dc/dcmitype/StillImage" /></cc:Work></rdf:RDF></metadata><defs
     id="defs6" /><sodipodi:namedview
     pagecolor="#ffffff"
     bordercolor="#666666"
     borderopacity="1"
     objecttolerance="10"
     gridtolerance="10"
     guidetolerance="10"
     inkscape:pageopacity="0"
     inkscape:pageshadow="2"
     inkscape:window-width="640"
     inkscape:window-height="480"
     id="namedview4" /><g
     id="g10"
     inkscape:groupmode="layer"
     inkscape:label="ink_ext_XXXXXX"
     transform="matrix(1.3333333,0,0,-1.3333333,0,73.333333)"><g
       id="g12"
       transform="scale(0.1)"><path
         d="m 473.176,176.746 c -34.985,0 -63.801,32.117 -63.801,71.563 0,39.445 28.262,71.558 63.801,71.558 35.828,0 64.375,-32.398 63.804,-71.558 0,-39.446 -27.976,-71.563 -63.804,-71.563 z m -235.914,0 c -34.989,0 -63.809,32.117 -63.809,71.563 0,39.445 28.266,71.558 63.809,71.558 35.82,0 64.363,-32.398 63.801,-71.558 0,-39.446 -28.266,-71.563 -63.801,-71.563 z m 363.785,324.277 c -45.254,20.762 -93.781,36.059 -144.524,44.825 -0.918,0.168 -1.843,-0.254 -2.324,-1.098 -6.238,-11.105 -13.144,-25.582 -17.988,-36.965 -54.57,8.172 -108.867,8.172 -162.32,0 -4.844,11.633 -12.004,25.86 -18.278,36.965 -0.472,0.816 -1.394,1.234 -2.316,1.098 -50.715,-8.735 -99.238,-24.032 -144.524,-44.825 -0.39,-0.171 -0.726,-0.453 -0.945,-0.82 C 15.7813,362.688 -9.43359,228.555 2.93359,96.082 2.98828,95.4375 3.35547,94.8203 3.85547,94.4219 64.5859,49.8203 123.414,22.7539 181.148,4.80469 c 0.922,-0.28516 1.903,0.05469 2.489,0.82031 13.66,18.6523 25.832,38.3086 36.269,58.9922 0.617,1.2109 0.032,2.6484 -1.23,3.125 -19.313,7.3242 -37.699,16.2617 -55.387,26.3984 -1.394,0.8203 -1.508,2.8203 -0.223,3.7774 3.727,2.793 7.446,5.691 11,8.621 0.645,0.539 1.539,0.649 2.297,0.316 116.196,-53.0581 241.989,-53.0581 356.821,0 0.754,0.36 1.652,0.243 2.312,-0.285 3.559,-2.929 7.285,-5.859 11.035,-8.652 1.282,-0.9571 1.203,-2.9571 -0.203,-3.7774 -17.683,-10.332 -36.062,-19.0742 -55.41,-26.3672 -1.262,-0.4804 -1.816,-1.9453 -1.199,-3.1562 10.664,-20.6524 22.84,-40.3125 36.238,-58.96486 0.566,-0.79296 1.57,-1.13281 2.488,-0.84765 58.02,17.94921 116.848,45.01561 177.571,89.61721 0.539,0.3984 0.871,0.9844 0.925,1.6406 14.805,153.1445 -24.793,286.1795 -104.968,404.1175 -0.203,0.39 -0.535,0.672 -0.926,0.843"
         style="fill:#ffffff;fill-opacity:1;fill-rule:nonzero;stroke:none"
         id="path14" /></g></g></svg>