<svg xmlns="http://www.w3.org/2000/svg" width="325" height="225" viewBox="0 0 403.382 227.617">
  <g id="Component_1_1" data-name="Component 1 – 1" transform="translate(0.379 0.501)">
    <path id="Path_1" data-name="Path 1" d="M315.974,316.368A151.846,151.846,0,0,1,326.1,290.98a142.551,142.551,0,0,1,15-22.232A118.372,118.372,0,0,0,309.816,247.1a113.037,113.037,0,0,0-47.4-10.4c-17.007.154-28.683,2.608-48.842,10.983s-37.436,29.015-37.436,29.015-20.9,21.358-25.52,55.106c-1.789,13.06-2.4,24.085,0,37.187a130.647,130.647,0,0,0,12.668,36.2s9.888,17.9,24.121,30.325S220.223,454.9,220.223,454.9s20.22,8.694,42.2,8.405,45.707-9.561,45.707-9.561a136.016,136.016,0,0,0,19.952-11.481c9.165-6.575,11.344-9.29,16.709-14.817,14.617-15.062,21.808-33.948,21.808-33.948s3.012-5.477,5.784-16.158c1.051-4.049,1.076-4.431,2.442-15.411s-.015-17.194,2.82-28.809,12.833-25.235,20.892-31.571c3.106-2.442,6.428-6.251,16.112-9.963s16.292-4.647,22.624-4.886a62.341,62.341,0,0,1,21.586,3.423,53.64,53.64,0,0,1,18.356,9.4c8.713,6.99,16.518,18.214,16.518,18.214l53.77.344s-4.736-14.838-12.063-27.02a119.392,119.392,0,0,0-17.245-21.706,129.959,129.959,0,0,0-23.761-18.093,129.375,129.375,0,0,0-27.683-11.1,148.6,148.6,0,0,0-29.478-3.467c-14.667,0-30.525,4.559-30.525,4.559a139.17,139.17,0,0,0-27.787,12.426,122.039,122.039,0,0,0-22.408,17.955s-12.462,14.914-19.788,29.473-9.787,26-10.657,47.409-6.587,28.63-9.47,33.623a102.054,102.054,0,0,1-8.176,11.35s-9.136,9.61-20.646,14.538-25.393,5.173-25.393,5.173-14.52-.074-25.91-5-21.376-15.391-21.376-15.391-13.78-15.029-15.856-34.31c-.826-7.674-1-12.787,1.32-23.32a60.467,60.467,0,0,1,7.96-18.813s8.8-13.665,21.624-21.2,28.663-8.393,28.663-8.393,18.526-1.027,32.559,6.511S315.974,316.368,315.974,316.368Z" transform="translate(-149.042 -236.693)" fill="#fff" stroke="#fff" stroke-width="1"/>
    <path id="Path_2" data-name="Path 2" d="M453.078,332.583v49.354h40.461a67.078,67.078,0,0,1-14.5,17.158c-5.782,4.849-14.519,10.33-29.345,13.155s-29.959-1.856-29.959-1.856-11.3-3.774-20.029-10.388a72.722,72.722,0,0,1-14.875-16.067,156.055,156.055,0,0,1-10.119,25.984,121.619,121.619,0,0,1-14.557,21.369s15.523,16.645,37.353,24.448a119.133,119.133,0,0,0,70.805,3.362,149.869,149.869,0,0,0,26.88-10.5,140.084,140.084,0,0,0,21.4-16.073,139.472,139.472,0,0,0,17.3-20.372,124.368,124.368,0,0,0,10.982-21.724c4.415-11.741,4.285-15.063,5.139-20.5a154.574,154.574,0,0,0,1.538-22.009c0-8.172-.625-15.372-.625-15.372Z" transform="translate(-149.042 -236.693)" fill="#fff" stroke="#fff" stroke-width="1"/>
  </g>
</svg>